<svg xmlns="http://www.w3.org/2000/svg" xmlns:xlink="http://www.w3.org/1999/xlink" width="800" zoomAndPan="magnify" viewBox="0 0 600 187.499995" height="250" preserveAspectRatio="xMidYMid meet" version="1.0"><defs><g/><clipPath id="b1f10cb275"><path d="M 0.796875 0 L 599.199219 0 L 599.199219 187 L 0.796875 187 Z M 0.796875 0 " clip-rule="nonzero"/></clipPath><clipPath id="9d6c1f7618"><path d="M 19 10 L 178 10 L 178 170 L 19 170 Z M 19 10 " clip-rule="nonzero"/></clipPath><clipPath id="4c3af44192"><path d="M 31.882812 4.914062 L 193.304688 32.792969 L 167.460938 182.421875 L 6.039062 154.542969 Z M 31.882812 4.914062 " clip-rule="nonzero"/></clipPath><clipPath id="066de112f9"><path d="M 31.882812 4.914062 L 193.304688 32.792969 L 167.460938 182.421875 L 6.039062 154.542969 Z M 31.882812 4.914062 " clip-rule="nonzero"/></clipPath><clipPath id="c087995d3b"><path d="M 122 61 L 145 61 L 145 93.175781 L 122 93.175781 Z M 122 61 " clip-rule="nonzero"/></clipPath></defs><g clip-path="url(#b1f10cb275)"><path fill="#ffffff" d="M 0.796875 0 L 599.203125 0 L 599.203125 187 L 0.796875 187 Z M 0.796875 0 " fill-opacity="1" fill-rule="nonzero"/><path fill="#e0f2fe" d="M 0.796875 0 L 599.203125 0 L 599.203125 187 L 0.796875 187 Z M 0.796875 0 " fill-opacity="1" fill-rule="nonzero"/></g><g clip-path="url(#9d6c1f7618)"><g clip-path="url(#4c3af44192)"><g clip-path="url(#066de112f9)"><path fill="#ffd400" d="M 55.511719 36.1875 C 57.089844 27.054688 59.988281 18.5625 64.171875 10.902344 C 41.914062 22.59375 25.09375 44.222656 20.464844 71.023438 C 12.578125 116.683594 43.289062 160.222656 88.949219 168.105469 C 125.480469 174.414062 160.761719 155.976562 177.371094 124.90625 C 161.625 133.226562 143.058594 136.5625 124.195312 133.304688 C 78.335938 125.382812 47.625 81.847656 55.511719 36.1875 Z M 55.511719 36.1875 " fill-opacity="1" fill-rule="nonzero"/></g></g></g><path fill="#f6ce10" d="M 133.492188 44.917969 C 132.761719 44.800781 132.957031 44 133.101562 43.492188 C 133.304688 42.632812 133.488281 41.765625 133.753906 40.925781 C 134.109375 39.808594 134.59375 38.734375 135.019531 37.644531 C 135.144531 37.324219 135.539062 37.179688 135.851562 37.308594 C 136.175781 37.445312 136.3125 37.816406 136.1875 38.136719 C 135.828125 39.050781 135.441406 39.953125 135.101562 40.878906 C 134.726562 42 134.476562 43.15625 134.21875 44.308594 C 134.210938 44.679688 133.859375 44.96875 133.492188 44.917969 " fill-opacity="1" fill-rule="nonzero"/><path fill="#f6ce10" d="M 137.648438 47.148438 C 137.414062 46.851562 137.507812 46.414062 137.824219 46.214844 C 138.609375 45.457031 139.46875 44.578125 140.273438 43.898438 C 141.363281 42.9375 142.460938 41.980469 143.5625 41.027344 C 144.195312 40.519531 144.996094 41.535156 144.335938 42.027344 C 142.769531 43.402344 141.273438 44.644531 139.804688 46.042969 C 139.195312 46.476562 138.46875 47.949219 137.648438 47.148438 " fill-opacity="1" fill-rule="nonzero"/><path fill="#f6ce10" d="M 141.097656 50.761719 C 140.800781 49.753906 142.273438 49.722656 142.90625 49.433594 C 144.367188 49.003906 145.832031 48.609375 147.300781 48.199219 C 147.632812 48.109375 147.988281 48.308594 148.078125 48.640625 C 148.167969 48.972656 147.96875 49.324219 147.636719 49.417969 C 146.710938 49.671875 145.785156 49.929688 144.859375 50.191406 C 144.003906 50.429688 143.148438 50.671875 142.304688 50.953125 C 141.894531 51.160156 141.320312 51.289062 141.097656 50.761719 " fill-opacity="1" fill-rule="nonzero"/><path fill="#f6ce10" d="M 133.367188 52.84375 C 133.441406 52.660156 133.433594 52.445312 133.34375 52.273438 C 133.632812 52.304688 133.921875 52.339844 134.214844 52.371094 C 133.929688 52.527344 133.648438 52.6875 133.367188 52.84375 Z M 128.429688 55.414062 C 128.660156 55.097656 128.875 54.789062 129.070312 54.601562 C 129.746094 55.164062 130.402344 54.234375 130.855469 53.8125 C 130.929688 53.9375 131.007812 54.027344 131.085938 54.089844 C 130.210938 54.550781 129.324219 54.996094 128.429688 55.414062 Z M 128.195312 52.023438 C 128.152344 51.816406 128.042969 51.675781 127.898438 51.597656 C 128.488281 51.671875 129.078125 51.746094 129.667969 51.824219 C 129.53125 51.949219 129.414062 52.097656 129.328125 52.246094 C 129.214844 51.734375 128.511719 51.625 128.195312 52.023438 Z M 126.890625 52.054688 C 126.246094 50.941406 125.394531 52.382812 124.988281 52.957031 C 124.8125 52.828125 124.574219 52.800781 124.375 52.882812 C 124.722656 52.347656 125.113281 51.832031 125.441406 51.289062 C 125.878906 51.339844 126.351562 51.335938 126.664062 51.4375 C 126.917969 51.46875 127.175781 51.503906 127.429688 51.535156 C 127.1875 51.589844 126.964844 51.769531 126.890625 52.054688 Z M 124.542969 60.042969 C 124.523438 60.035156 124.507812 60.023438 124.488281 60.015625 C 123.722656 59.746094 123.433594 60.773438 122.996094 61.195312 C 123.171875 60.527344 123.820312 59.707031 123.945312 58.984375 C 124.230469 59.140625 124.511719 59.066406 124.785156 58.863281 C 124.707031 59.257812 124.625 59.652344 124.542969 60.042969 Z M 123.128906 65.738281 C 123.125 65.734375 123.121094 65.730469 123.113281 65.726562 C 123.132812 65.683594 123.152344 65.640625 123.171875 65.59375 C 123.15625 65.644531 123.144531 65.691406 123.128906 65.738281 Z M 123.53125 41.324219 C 123.621094 41.777344 123.707031 42.230469 123.792969 42.683594 C 123.488281 42.707031 123.152344 42.898438 122.949219 43.207031 C 123.0625 42.726562 123.46875 41.949219 123.53125 41.324219 Z M 123.140625 39.507812 C 123.230469 39.898438 123.316406 40.289062 123.398438 40.679688 C 123.300781 40.542969 123.144531 40.4375 122.90625 40.375 C 122.941406 40.105469 123.039062 39.808594 123.140625 39.507812 Z M 124.066406 44.296875 C 124.164062 44.90625 124.257812 45.515625 124.34375 46.128906 C 124.152344 46.085938 123.9375 46.117188 123.757812 46.265625 C 124.019531 45.792969 124.46875 45.035156 123.871094 44.632812 C 123.933594 44.519531 124 44.410156 124.066406 44.296875 Z M 124.625 47.632812 C 124.660156 47.832031 124.699219 48.027344 124.738281 48.222656 C 124.632812 48.199219 124.507812 48.191406 124.355469 48.203125 C 124.445312 48.015625 124.535156 47.824219 124.625 47.632812 Z M 124.992188 49.554688 C 125.011719 49.683594 125.035156 49.808594 125.058594 49.9375 C 124.96875 49.9375 124.882812 49.945312 124.804688 49.964844 C 124.871094 49.835938 124.933594 49.699219 124.992188 49.554688 Z M 122.386719 37.636719 C 122.433594 37.425781 122.480469 37.214844 122.523438 37 C 122.570312 37.164062 122.609375 37.324219 122.652344 37.488281 C 122.554688 37.519531 122.460938 37.570312 122.386719 37.636719 Z M 120.460938 52.179688 C 120.804688 51.625 121.128906 51.066406 121.367188 50.464844 C 121.371094 50.445312 121.375 50.425781 121.378906 50.40625 C 121.648438 50.101562 121.929688 49.796875 122.242188 49.503906 C 121.710938 50.4375 121.097656 51.316406 120.460938 52.179688 Z M 121.875 69.890625 C 121.8125 69.542969 121.742188 69.195312 121.667969 68.851562 C 121.707031 68.878906 121.75 68.90625 121.796875 68.925781 C 121.941406 68.976562 122.066406 68.984375 122.171875 68.964844 C 122.074219 69.273438 121.976562 69.582031 121.875 69.890625 Z M 121.75 59.445312 C 121.789062 59.386719 121.832031 59.328125 121.875 59.28125 C 121.832031 59.394531 121.769531 59.511719 121.703125 59.632812 C 121.691406 59.644531 121.679688 59.660156 121.664062 59.671875 C 121.691406 59.59375 121.71875 59.519531 121.75 59.445312 Z M 120.980469 65.867188 C 120.730469 64.839844 120.480469 63.804688 120.25 62.75 C 120.578125 62.804688 120.960938 62.640625 121.160156 62.335938 C 120.988281 62.890625 120.558594 63.472656 120.734375 64.070312 C 120.875 64.425781 121.28125 64.664062 121.648438 64.496094 C 121.539062 64.886719 121.152344 65.394531 120.980469 65.867188 Z M 121.230469 66.921875 C 121.226562 66.894531 121.21875 66.871094 121.214844 66.84375 C 121.226562 66.851562 121.238281 66.863281 121.253906 66.871094 C 121.246094 66.886719 121.238281 66.902344 121.230469 66.921875 Z M 119.898438 61.046875 C 119.804688 60.574219 119.71875 60.101562 119.640625 59.628906 C 119.78125 59.679688 119.945312 59.675781 120.105469 59.589844 C 120.074219 59.757812 120.121094 59.921875 120.214844 60.054688 C 120.105469 60.382812 119.988281 60.710938 119.898438 61.046875 Z M 118.894531 56.632812 C 118.859375 56.628906 118.828125 56.628906 118.796875 56.628906 C 118.96875 56.433594 119.117188 56.207031 119.253906 56.042969 C 119.53125 55.691406 119.808594 55.339844 120.082031 54.988281 C 120.269531 54.855469 120.425781 54.738281 120.542969 54.660156 C 120.726562 54.453125 120.800781 54.257812 120.792969 54.085938 C 121.175781 53.597656 121.566406 53.105469 121.957031 52.625 C 121.664062 53.570312 120.027344 55.5 119.324219 56.996094 C 119.257812 56.824219 119.136719 56.691406 118.894531 56.632812 Z M 119.988281 47.566406 C 120.082031 47.636719 120.199219 47.683594 120.324219 47.6875 C 120.238281 47.886719 120.027344 48.152344 119.796875 48.445312 C 119.859375 48.152344 119.925781 47.859375 119.988281 47.566406 Z M 120.898438 43.707031 C 120.992188 43.824219 121.132812 43.90625 121.320312 43.921875 C 121.058594 44.570312 120.738281 45.183594 120.390625 45.785156 C 120.550781 45.089844 120.726562 44.398438 120.898438 43.707031 Z M 117.613281 56.683594 C 117.222656 56.601562 116.832031 56.515625 116.441406 56.433594 C 116.496094 56.390625 116.546875 56.335938 116.585938 56.265625 C 116.835938 55.886719 117.0625 55.492188 117.320312 55.117188 C 117.300781 55.640625 117.433594 55.914062 117.660156 56.019531 C 117.546875 56.242188 117.492188 56.472656 117.613281 56.683594 Z M 115.289062 56.1875 C 115.332031 56.132812 115.371094 56.082031 115.410156 56.035156 C 115.417969 56.105469 115.4375 56.167969 115.464844 56.226562 C 115.40625 56.210938 115.347656 56.199219 115.289062 56.1875 Z M 114.972656 52.992188 C 114.925781 52.886719 114.871094 52.804688 114.8125 52.738281 C 114.992188 52.683594 115.171875 52.625 115.351562 52.566406 C 115.222656 52.734375 115.101562 52.886719 114.972656 52.992188 Z M 112.785156 53.578125 C 112.742188 53.515625 112.691406 53.460938 112.636719 53.414062 C 112.828125 53.355469 113.015625 53.300781 113.207031 53.242188 C 113.050781 53.371094 112.90625 53.496094 112.785156 53.578125 Z M 111.210938 55.183594 C 111.421875 55.085938 111.621094 54.957031 111.78125 54.816406 C 111.996094 55.195312 112.488281 55.253906 112.855469 55.050781 C 112.78125 55.265625 112.824219 55.476562 112.933594 55.644531 C 112.355469 55.5 111.78125 55.347656 111.210938 55.183594 Z M 109.910156 54.78125 C 109.632812 54.691406 109.355469 54.597656 109.078125 54.496094 C 109.390625 54.398438 109.703125 54.304688 110.015625 54.210938 C 109.96875 54.308594 109.933594 54.402344 109.90625 54.484375 C 109.894531 54.59375 109.898438 54.695312 109.910156 54.78125 Z M 135.753906 51.429688 C 134.824219 51.148438 133.851562 51.019531 132.871094 50.921875 C 132.703125 50.742188 132.441406 50.667969 132.121094 50.828125 C 132.113281 50.835938 132.105469 50.84375 132.097656 50.847656 C 131.328125 50.777344 130.558594 50.703125 129.804688 50.5625 C 128.644531 50.414062 127.480469 50.277344 126.320312 50.117188 C 126.34375 50.035156 126.347656 49.945312 126.332031 49.84375 C 125.429688 45.238281 124.871094 40.570312 123.585938 36.042969 C 123.472656 35.160156 122.703125 33.332031 121.789062 34.695312 C 121.535156 35.378906 121.449219 36.125 121.265625 36.835938 C 120.574219 40.152344 119.609375 43.402344 118.875 46.710938 C 118.660156 47.738281 118.425781 48.761719 118.214844 49.789062 C 118.183594 49.945312 118.140625 50.125 118.105469 50.308594 C 118.105469 50.308594 118.101562 50.308594 118.101562 50.308594 C 116.824219 50.734375 115.558594 51.1875 114.277344 51.589844 C 112.070312 52.296875 109.828125 52.886719 107.640625 53.65625 C 104.890625 55.648438 114.636719 57.339844 118.128906 58.070312 C 118.171875 58.421875 118.242188 58.765625 118.253906 59.011719 C 118.679688 61.644531 119.253906 64.257812 119.925781 66.84375 C 120.34375 67.925781 120.632812 71.863281 121.445312 72.277344 C 122.84375 72.914062 123.332031 68.964844 123.792969 68.046875 C 124.769531 64.613281 125.683594 61.144531 126.308594 57.628906 C 128.285156 56.921875 130.183594 56.027344 132.015625 55.007812 C 132.875 54.378906 137.507812 52.773438 135.753906 51.429688 " fill-opacity="1" fill-rule="nonzero"/><path fill="#f6ce10" d="M 144.230469 72.484375 C 143.363281 71.214844 146.96875 70.832031 147.738281 70.460938 C 148.945312 70.121094 150.148438 69.785156 151.359375 69.464844 C 151.691406 69.375 152.046875 69.570312 152.136719 69.90625 C 152.230469 70.234375 152.03125 70.59375 151.695312 70.679688 C 149.632812 71.238281 147.5625 71.789062 145.53125 72.449219 C 145.105469 72.601562 144.585938 72.953125 144.230469 72.484375 " fill-opacity="1" fill-rule="nonzero"/><path fill="#f6ce10" d="M 152.949219 80.25 C 151.816406 79.746094 150.671875 79.265625 149.527344 78.785156 C 148.898438 78.457031 147.316406 78.210938 147.90625 77.210938 C 148.144531 76.886719 148.605469 76.929688 148.890625 77.144531 C 149.675781 77.503906 150.488281 77.804688 151.28125 78.152344 C 151.925781 78.582031 154.179688 78.90625 153.78125 79.914062 C 153.648438 80.226562 153.261719 80.390625 152.949219 80.25 " fill-opacity="1" fill-rule="nonzero"/><path fill="#f6ce10" d="M 150.453125 89.109375 C 148.984375 87.898438 147.519531 86.6875 146.046875 85.484375 C 145.78125 85.265625 145.71875 84.875 145.933594 84.597656 C 146.140625 84.332031 146.554688 84.265625 146.820312 84.484375 C 148.292969 85.6875 149.757812 86.902344 151.226562 88.109375 C 151.878906 88.605469 151.09375 89.613281 150.453125 89.109375 " fill-opacity="1" fill-rule="nonzero"/><g clip-path="url(#c087995d3b)"><path fill="#f6ce10" d="M 142.1875 77.929688 C 142.199219 77.671875 142.035156 77.429688 141.800781 77.324219 C 142.125 77.410156 142.449219 77.496094 142.773438 77.582031 C 142.582031 77.707031 142.386719 77.820312 142.1875 77.929688 Z M 138.550781 79.285156 C 138.0625 79.425781 137.578125 79.582031 137.097656 79.742188 C 137.082031 79.523438 136.9375 79.339844 136.746094 79.242188 C 137.085938 78.886719 137.40625 78.511719 137.65625 78.332031 C 137.554688 78.738281 137.828125 79.230469 138.28125 79.21875 C 138.925781 79.203125 139.40625 78.664062 139.9375 78.359375 C 139.925781 78.550781 139.984375 78.703125 140.082031 78.820312 C 139.574219 78.988281 139.0625 79.140625 138.550781 79.285156 Z M 137.609375 76.230469 C 137.714844 76.257812 137.816406 76.285156 137.921875 76.308594 C 137.777344 76.46875 137.632812 76.625 137.472656 76.746094 C 137.5625 76.589844 137.605469 76.410156 137.609375 76.230469 Z M 139.566406 76.734375 C 139.671875 76.761719 139.78125 76.789062 139.886719 76.816406 C 139.730469 76.957031 139.570312 77.09375 139.398438 77.191406 C 139.453125 77.058594 139.515625 76.898438 139.566406 76.734375 Z M 135.71875 80.246094 C 135.691406 80.175781 135.652344 80.109375 135.601562 80.050781 C 135.652344 80.042969 135.703125 80.03125 135.757812 80.015625 C 135.742188 80.089844 135.730469 80.167969 135.71875 80.246094 Z M 135.613281 80.878906 C 135.609375 80.878906 135.605469 80.875 135.601562 80.871094 C 135.613281 80.863281 135.617188 80.851562 135.625 80.84375 C 135.621094 80.855469 135.617188 80.867188 135.613281 80.878906 Z M 134.777344 71.453125 C 134.882812 71.160156 135.117188 70.769531 135.335938 70.355469 C 135.375 70.597656 135.417969 70.839844 135.457031 71.078125 C 135.207031 71.148438 134.960938 71.292969 134.777344 71.453125 Z M 135.019531 83.484375 C 134.964844 83.402344 134.882812 83.332031 134.769531 83.273438 C 134.921875 83.027344 135.078125 82.789062 135.242188 82.550781 C 135.171875 82.863281 135.09375 83.175781 135.019531 83.484375 Z M 133.445312 81.421875 C 133.707031 80.894531 133.992188 80.378906 134.285156 79.867188 C 134.527344 79.589844 134.773438 79.320312 135.023438 79.054688 C 134.902344 79.296875 134.910156 79.601562 135.0625 79.8125 C 134.929688 79.824219 134.800781 79.875 134.679688 79.996094 C 134.246094 80.453125 133.898438 80.980469 133.445312 81.421875 Z M 134.351562 85.992188 C 134.328125 85.960938 134.296875 85.933594 134.261719 85.90625 C 134.308594 85.726562 134.417969 85.503906 134.550781 85.265625 C 134.484375 85.507812 134.417969 85.75 134.351562 85.992188 Z M 133.160156 90.363281 C 133.125 90.214844 133.089844 90.066406 133.058594 89.917969 C 133.144531 89.890625 133.230469 89.847656 133.316406 89.796875 C 133.261719 89.984375 133.210938 90.175781 133.160156 90.363281 Z M 132.890625 78.78125 C 133.101562 78.238281 133.6875 77.472656 134.003906 76.804688 C 134.410156 76.523438 134.65625 75.964844 135.058594 75.675781 C 134.558594 76.488281 134.039062 77.285156 133.539062 78.097656 C 133.328125 78.328125 133.113281 78.558594 132.890625 78.78125 Z M 132.753906 75.355469 C 133.253906 74.664062 133.8125 74.011719 134.421875 73.410156 C 134.023438 74.167969 133.613281 74.914062 133.226562 75.675781 C 133.121094 75.742188 133.027344 75.832031 132.960938 75.949219 C 133.019531 75.714844 132.917969 75.496094 132.753906 75.355469 Z M 132.574219 87.953125 C 132.539062 87.820312 132.507812 87.6875 132.472656 87.554688 C 132.519531 87.632812 132.578125 87.703125 132.65625 87.757812 C 132.632812 87.820312 132.605469 87.886719 132.574219 87.953125 Z M 132.390625 87.234375 C 132.351562 87.09375 132.316406 86.949219 132.277344 86.804688 C 132.335938 86.8125 132.398438 86.820312 132.46875 86.816406 C 132.417969 86.953125 132.386719 87.09375 132.390625 87.234375 Z M 131.949219 85.503906 C 131.914062 85.351562 131.875 85.199219 131.839844 85.046875 C 131.902344 85.125 131.992188 85.191406 132.113281 85.242188 C 132.054688 85.320312 131.996094 85.410156 131.949219 85.503906 Z M 131.558594 83.78125 C 131.449219 83.199219 131.351562 82.613281 131.246094 82.027344 C 131.558594 81.855469 131.800781 81.5625 132.078125 81.34375 C 131.738281 82.027344 131.175781 83.195312 132.105469 83.65625 C 131.941406 83.890625 131.761719 84.226562 131.722656 84.535156 C 131.664062 84.285156 131.609375 84.035156 131.558594 83.78125 Z M 131.4375 75.53125 C 131.457031 75.589844 131.488281 75.648438 131.53125 75.703125 C 131.375 75.847656 131.222656 75.992188 131.066406 76.132812 C 131.179688 75.925781 131.316406 75.730469 131.4375 75.53125 Z M 132.019531 72.796875 C 132.03125 72.792969 132.039062 72.789062 132.050781 72.785156 C 132.515625 72.5625 132.824219 72.105469 133.1875 71.75 C 132.75 72.539062 132.324219 73.328125 131.917969 74.128906 C 131.859375 74.105469 131.800781 74.085938 131.730469 74.074219 C 131.828125 73.648438 131.925781 73.222656 132.019531 72.796875 Z M 134.203125 64.488281 C 134.21875 64.546875 134.230469 64.605469 134.242188 64.660156 C 134.207031 64.679688 134.171875 64.703125 134.140625 64.730469 C 134.164062 64.648438 134.183594 64.570312 134.203125 64.488281 Z M 134.933594 68.023438 C 134.945312 68.089844 134.957031 68.152344 134.96875 68.214844 C 134.902344 68.234375 134.839844 68.261719 134.785156 68.296875 C 134.832031 68.21875 134.882812 68.125 134.933594 68.023438 Z M 129.65625 79.484375 C 129.539062 79.457031 129.425781 79.425781 129.308594 79.398438 C 129.558594 79.253906 129.769531 79.007812 129.992188 78.824219 C 129.90625 79.035156 129.765625 79.257812 129.65625 79.484375 Z M 128.9375 76.050781 C 128.9375 76.046875 128.9375 76.042969 128.9375 76.042969 C 128.945312 76.039062 128.949219 76.039062 128.953125 76.039062 C 128.949219 76.042969 128.941406 76.046875 128.9375 76.050781 Z M 128.285156 79.128906 C 128.089844 79.070312 127.894531 79.007812 127.699219 78.945312 C 127.933594 78.730469 128.144531 78.476562 128.382812 78.289062 C 128.222656 78.53125 128.1875 78.867188 128.285156 79.128906 Z M 126.269531 78.417969 C 125.597656 78.136719 124.9375 77.820312 124.277344 77.457031 C 124.691406 77.34375 125.101562 77.226562 125.511719 77.105469 C 125.335938 77.695312 125.601562 78.308594 126.40625 78.097656 C 126.339844 78.195312 126.292969 78.304688 126.269531 78.417969 Z M 142.167969 76.128906 C 141.566406 75.949219 140.972656 75.75 140.359375 75.625 C 139.351562 75.410156 138.371094 75.105469 137.375 74.867188 C 137.328125 74.597656 137.285156 74.328125 137.238281 74.0625 C 137.265625 73.875 137.257812 73.683594 137.195312 73.492188 C 137.175781 73.445312 137.148438 73.40625 137.121094 73.367188 C 136.773438 71.355469 136.40625 69.347656 136.089844 67.332031 C 135.855469 66.394531 135.257812 60.765625 133.621094 62.152344 C 133.128906 62.894531 133.125 63.875 132.839844 64.710938 C 132.511719 65.996094 132.097656 67.261719 131.742188 68.542969 C 131.375 69.878906 131.0625 71.230469 130.773438 72.582031 C 130.765625 73.027344 130.433594 73.71875 130.355469 74.292969 C 130.203125 74.339844 130.066406 74.382812 129.953125 74.417969 C 128.753906 74.789062 127.550781 75.15625 126.347656 75.523438 C 125.445312 75.820312 124.53125 76.089844 123.609375 76.332031 C 122.578125 76.472656 121.785156 77.265625 122.789062 78.101562 C 124.125 78.804688 125.480469 79.527344 126.90625 80.046875 C 127.828125 80.351562 128.808594 80.484375 129.710938 80.847656 C 130.289062 84.074219 131.066406 87.25 131.878906 90.453125 C 132.191406 91.25 132.070312 92.796875 133.039062 93.074219 C 134.144531 93.164062 134.261719 90.613281 134.628906 89.804688 C 135.417969 86.910156 136.253906 84.027344 136.855469 81.085938 C 137.230469 81.109375 137.601562 80.855469 137.96875 80.78125 C 138.59375 80.578125 139.226562 80.410156 139.851562 80.21875 C 141.097656 79.796875 144.589844 78.691406 144.6875 77.226562 C 144.386719 76.238281 142.960938 76.492188 142.167969 76.128906 " fill-opacity="1" fill-rule="nonzero"/></g><g fill="#000000" fill-opacity="1"><g transform="translate(189.139595, 110.302357)"><g><path d="M 37.421875 -13.875 C 36.046875 -13.820312 35.117188 -13.546875 34.640625 -13.046875 C 34.160156 -12.554688 33.921875 -11.832031 33.921875 -10.875 L 33.921875 0.8125 C 32.515625 0.71875 31.253906 0.78125 30.140625 1 C 29.035156 1.226562 27.835938 1.554688 26.546875 1.984375 C 24.328125 2.722656 21.929688 3.09375 19.359375 3.09375 C 16.722656 3.09375 14.304688 2.644531 12.109375 1.75 C 9.910156 0.851562 8.023438 -0.4375 6.453125 -2.125 C 4.878906 -3.820312 3.664062 -5.882812 2.8125 -8.3125 C 1.957031 -10.738281 1.546875 -13.476562 1.578125 -16.53125 C 1.628906 -19.5 2.171875 -22.171875 3.203125 -24.546875 C 4.242188 -26.929688 5.617188 -28.960938 7.328125 -30.640625 C 9.035156 -32.316406 11.003906 -33.601562 13.234375 -34.5 C 15.460938 -35.394531 17.789062 -35.84375 20.21875 -35.84375 C 21.476562 -35.84375 22.78125 -35.722656 24.125 -35.484375 C 25.46875 -35.242188 26.679688 -34.929688 27.765625 -34.546875 L 29.5625 -35.625 L 32.296875 -35.625 L 33.78125 -23.578125 L 30.046875 -23 C 29.785156 -24.582031 29.320312 -25.941406 28.65625 -27.078125 C 28 -28.222656 27.222656 -29.15625 26.328125 -29.875 C 25.429688 -30.59375 24.441406 -31.113281 23.359375 -31.4375 C 22.285156 -31.769531 21.175781 -31.9375 20.03125 -31.9375 C 17.84375 -31.9375 16.03125 -31.488281 14.59375 -30.59375 C 13.15625 -29.695312 12.007812 -28.515625 11.15625 -27.046875 C 10.3125 -25.578125 9.710938 -23.90625 9.359375 -22.03125 C 9.015625 -20.164062 8.816406 -18.257812 8.765625 -16.3125 C 8.734375 -14.332031 8.929688 -12.4375 9.359375 -10.625 C 9.796875 -8.8125 10.484375 -7.21875 11.421875 -5.84375 C 12.367188 -4.46875 13.5625 -3.363281 15 -2.53125 C 16.4375 -1.707031 18.128906 -1.296875 20.078125 -1.296875 C 21.640625 -1.296875 23.046875 -1.5 24.296875 -1.90625 C 25.554688 -2.3125 26.695312 -2.859375 27.71875 -3.546875 L 27.71875 -10.78125 C 27.71875 -11.320312 27.671875 -11.785156 27.578125 -12.171875 C 27.492188 -12.566406 27.285156 -12.890625 26.953125 -13.140625 C 26.617188 -13.390625 26.140625 -13.582031 25.515625 -13.71875 C 24.890625 -13.851562 24.035156 -13.921875 22.953125 -13.921875 L 22.953125 -17.5625 L 37.421875 -17.5625 Z M 37.421875 -13.875 "/></g></g></g><g fill="#000000" fill-opacity="1"><g transform="translate(227.267194, 110.302357)"><g><path d="M 28.078125 -10.734375 C 28.078125 -8.878906 27.773438 -7.132812 27.171875 -5.5 C 26.578125 -3.875 25.71875 -2.445312 24.59375 -1.21875 C 23.46875 0.0078125 22.082031 0.984375 20.4375 1.703125 C 18.789062 2.421875 16.9375 2.78125 14.875 2.78125 C 12.800781 2.78125 10.945312 2.421875 9.3125 1.703125 C 7.6875 0.984375 6.300781 0.0078125 5.15625 -1.21875 C 4.019531 -2.445312 3.148438 -3.875 2.546875 -5.5 C 1.953125 -7.132812 1.65625 -8.878906 1.65625 -10.734375 C 1.65625 -12.585938 1.953125 -14.332031 2.546875 -15.96875 C 3.148438 -17.601562 4.019531 -19.035156 5.15625 -20.265625 C 6.300781 -21.492188 7.6875 -22.457031 9.3125 -23.15625 C 10.945312 -23.863281 12.800781 -24.21875 14.875 -24.21875 C 16.9375 -24.21875 18.789062 -23.863281 20.4375 -23.15625 C 22.082031 -22.457031 23.46875 -21.492188 24.59375 -20.265625 C 25.71875 -19.035156 26.578125 -17.601562 27.171875 -15.96875 C 27.773438 -14.332031 28.078125 -12.585938 28.078125 -10.734375 Z M 21.609375 -10.78125 C 21.640625 -13.800781 21.144531 -16.195312 20.125 -17.96875 C 19.101562 -19.738281 17.425781 -20.625 15.09375 -20.625 C 12.820312 -20.625 11.109375 -19.738281 9.953125 -17.96875 C 8.796875 -16.195312 8.203125 -13.800781 8.171875 -10.78125 C 8.140625 -7.726562 8.648438 -5.320312 9.703125 -3.5625 C 10.753906 -1.8125 12.445312 -0.9375 14.78125 -0.9375 C 17.082031 -0.9375 18.785156 -1.8125 19.890625 -3.5625 C 21.003906 -5.320312 21.578125 -7.726562 21.609375 -10.78125 Z M 21.609375 -10.78125 "/></g></g></g><g fill="#000000" fill-opacity="1"><g transform="translate(256.996846, 110.302357)"><g><path d="M 28.078125 -10.734375 C 28.078125 -8.878906 27.773438 -7.132812 27.171875 -5.5 C 26.578125 -3.875 25.71875 -2.445312 24.59375 -1.21875 C 23.46875 0.0078125 22.082031 0.984375 20.4375 1.703125 C 18.789062 2.421875 16.9375 2.78125 14.875 2.78125 C 12.800781 2.78125 10.945312 2.421875 9.3125 1.703125 C 7.6875 0.984375 6.300781 0.0078125 5.15625 -1.21875 C 4.019531 -2.445312 3.148438 -3.875 2.546875 -5.5 C 1.953125 -7.132812 1.65625 -8.878906 1.65625 -10.734375 C 1.65625 -12.585938 1.953125 -14.332031 2.546875 -15.96875 C 3.148438 -17.601562 4.019531 -19.035156 5.15625 -20.265625 C 6.300781 -21.492188 7.6875 -22.457031 9.3125 -23.15625 C 10.945312 -23.863281 12.800781 -24.21875 14.875 -24.21875 C 16.9375 -24.21875 18.789062 -23.863281 20.4375 -23.15625 C 22.082031 -22.457031 23.46875 -21.492188 24.59375 -20.265625 C 25.71875 -19.035156 26.578125 -17.601562 27.171875 -15.96875 C 27.773438 -14.332031 28.078125 -12.585938 28.078125 -10.734375 Z M 21.609375 -10.78125 C 21.640625 -13.800781 21.144531 -16.195312 20.125 -17.96875 C 19.101562 -19.738281 17.425781 -20.625 15.09375 -20.625 C 12.820312 -20.625 11.109375 -19.738281 9.953125 -17.96875 C 8.796875 -16.195312 8.203125 -13.800781 8.171875 -10.78125 C 8.140625 -7.726562 8.648438 -5.320312 9.703125 -3.5625 C 10.753906 -1.8125 12.445312 -0.9375 14.78125 -0.9375 C 17.082031 -0.9375 18.785156 -1.8125 19.890625 -3.5625 C 21.003906 -5.320312 21.578125 -7.726562 21.609375 -10.78125 Z M 21.609375 -10.78125 "/></g></g></g><g fill="#000000" fill-opacity="1"><g transform="translate(286.726498, 110.302357)"><g><path d="M 22.46875 2.203125 L 21.5625 -0.453125 C 20.507812 0.710938 19.257812 1.539062 17.8125 2.03125 C 16.363281 2.53125 14.8125 2.78125 13.15625 2.78125 C 11.601562 2.78125 10.125 2.503906 8.71875 1.953125 C 7.3125 1.398438 6.082031 0.570312 5.03125 -0.53125 C 3.976562 -1.644531 3.140625 -3.039062 2.515625 -4.71875 C 1.890625 -6.394531 1.578125 -8.359375 1.578125 -10.609375 C 1.578125 -12.492188 1.882812 -14.265625 2.5 -15.921875 C 3.113281 -17.585938 3.960938 -19.035156 5.046875 -20.265625 C 6.140625 -21.492188 7.453125 -22.46875 8.984375 -23.1875 C 10.515625 -23.90625 12.191406 -24.265625 14.015625 -24.265625 C 15.484375 -24.265625 16.859375 -24.015625 18.140625 -23.515625 C 19.429688 -23.023438 20.484375 -22.269531 21.296875 -21.25 L 21.296875 -30.09375 C 21.296875 -30.90625 20.992188 -31.414062 20.390625 -31.625 C 19.796875 -31.832031 18.941406 -31.9375 17.828125 -31.9375 L 17.828125 -35.078125 C 18.429688 -35.140625 19.03125 -35.253906 19.625 -35.421875 C 20.226562 -35.585938 20.796875 -35.765625 21.328125 -35.953125 C 21.867188 -36.148438 22.347656 -36.347656 22.765625 -36.546875 C 23.191406 -36.742188 23.523438 -36.929688 23.765625 -37.109375 L 27.09375 -37.109375 L 27.09375 -3.734375 C 27.09375 -3.160156 27.164062 -2.707031 27.3125 -2.375 C 27.457031 -2.050781 27.664062 -1.796875 27.9375 -1.609375 C 28.207031 -1.429688 28.53125 -1.320312 28.90625 -1.28125 C 29.28125 -1.238281 29.691406 -1.203125 30.140625 -1.171875 L 30.140625 2.203125 Z M 21.390625 -10.609375 C 21.390625 -12.046875 21.226562 -13.351562 20.90625 -14.53125 C 20.59375 -15.71875 20.144531 -16.726562 19.5625 -17.5625 C 18.976562 -18.40625 18.273438 -19.050781 17.453125 -19.5 C 16.628906 -19.945312 15.691406 -20.171875 14.640625 -20.171875 C 13.628906 -20.171875 12.703125 -19.945312 11.859375 -19.5 C 11.023438 -19.050781 10.3125 -18.40625 9.71875 -17.5625 C 9.132812 -16.726562 8.6875 -15.71875 8.375 -14.53125 C 8.0625 -13.351562 7.90625 -12.046875 7.90625 -10.609375 C 7.90625 -9.171875 8.0625 -7.859375 8.375 -6.671875 C 8.6875 -5.484375 9.132812 -4.46875 9.71875 -3.625 C 10.3125 -2.789062 11.023438 -2.148438 11.859375 -1.703125 C 12.703125 -1.253906 13.628906 -1.03125 14.640625 -1.03125 C 15.691406 -1.03125 16.628906 -1.253906 17.453125 -1.703125 C 18.273438 -2.148438 18.976562 -2.789062 19.5625 -3.625 C 20.144531 -4.46875 20.59375 -5.484375 20.90625 -6.671875 C 21.226562 -7.859375 21.390625 -9.171875 21.390625 -10.609375 Z M 21.390625 -10.609375 "/></g></g></g><g fill="#000000" fill-opacity="1"><g transform="translate(318.252499, 110.302357)"><g/></g></g><g fill="#000000" fill-opacity="1"><g transform="translate(340.706915, 110.302357)"><g><path d="M 28.96875 -8.40625 C 28.96875 -6.363281 28.570312 -4.59375 27.78125 -3.09375 C 26.988281 -1.601562 25.925781 -0.382812 24.59375 0.5625 C 23.257812 1.507812 21.71875 2.191406 19.96875 2.609375 C 18.21875 3.023438 16.367188 3.175781 14.421875 3.0625 C 13.492188 3 12.328125 2.800781 10.921875 2.46875 C 9.515625 2.144531 8.132812 1.632812 6.78125 0.9375 L 5.4375 2.5625 L 2.515625 2.5625 L 2.15625 -10.015625 L 5.96875 -10.015625 C 6.300781 -7.410156 7.125 -5.3125 8.4375 -3.71875 C 9.757812 -2.132812 11.828125 -1.253906 14.640625 -1.078125 C 15.804688 -0.984375 16.898438 -1.035156 17.921875 -1.234375 C 18.941406 -1.429688 19.832031 -1.753906 20.59375 -2.203125 C 21.363281 -2.648438 21.960938 -3.238281 22.390625 -3.96875 C 22.828125 -4.707031 23.046875 -5.570312 23.046875 -6.5625 C 23.046875 -7.25 22.890625 -7.925781 22.578125 -8.59375 C 22.265625 -9.269531 21.722656 -9.9375 20.953125 -10.59375 C 20.191406 -11.257812 19.164062 -11.910156 17.875 -12.546875 C 16.59375 -13.191406 14.976562 -13.816406 13.03125 -14.421875 C 10.90625 -15.078125 9.148438 -15.816406 7.765625 -16.640625 C 6.390625 -17.460938 5.296875 -18.359375 4.484375 -19.328125 C 3.679688 -20.304688 3.113281 -21.34375 2.78125 -22.4375 C 2.457031 -23.53125 2.296875 -24.660156 2.296875 -25.828125 C 2.296875 -27.597656 2.664062 -29.132812 3.40625 -30.4375 C 4.15625 -31.738281 5.160156 -32.816406 6.421875 -33.671875 C 7.679688 -34.523438 9.148438 -35.128906 10.828125 -35.484375 C 12.503906 -35.847656 14.269531 -35.96875 16.125 -35.84375 C 16.457031 -35.8125 16.863281 -35.765625 17.34375 -35.703125 C 17.820312 -35.648438 18.328125 -35.5625 18.859375 -35.4375 C 19.398438 -35.320312 19.941406 -35.1875 20.484375 -35.03125 C 21.023438 -34.882812 21.503906 -34.722656 21.921875 -34.546875 L 23.09375 -35.484375 L 26.140625 -35.484375 L 26.546875 -24.890625 L 22.734375 -24.890625 C 22.640625 -25.691406 22.425781 -26.503906 22.09375 -27.328125 C 21.769531 -28.160156 21.300781 -28.910156 20.6875 -29.578125 C 20.070312 -30.253906 19.304688 -30.816406 18.390625 -31.265625 C 17.484375 -31.710938 16.367188 -31.96875 15.046875 -32.03125 C 14.023438 -32.09375 13.082031 -32.007812 12.21875 -31.78125 C 11.351562 -31.5625 10.601562 -31.222656 9.96875 -30.765625 C 9.34375 -30.316406 8.859375 -29.769531 8.515625 -29.125 C 8.171875 -28.488281 8 -27.765625 8 -26.953125 C 8 -25.960938 8.238281 -25.128906 8.71875 -24.453125 C 9.195312 -23.785156 9.835938 -23.195312 10.640625 -22.6875 C 11.453125 -22.175781 12.394531 -21.734375 13.46875 -21.359375 C 14.550781 -20.984375 15.691406 -20.617188 16.890625 -20.265625 C 19.140625 -19.597656 21.035156 -18.835938 22.578125 -17.984375 C 24.117188 -17.140625 25.359375 -16.210938 26.296875 -15.203125 C 27.242188 -14.203125 27.925781 -13.128906 28.34375 -11.984375 C 28.757812 -10.847656 28.96875 -9.65625 28.96875 -8.40625 Z M 28.96875 -8.40625 "/></g></g></g><g fill="#000000" fill-opacity="1"><g transform="translate(371.200015, 110.302357)"><g><path d="M 1.125 2.203125 L 1.125 -1.125 C 2.050781 -1.125 2.878906 -1.316406 3.609375 -1.703125 C 4.347656 -2.097656 4.71875 -2.800781 4.71875 -3.8125 L 4.71875 -29.5625 C 4.71875 -30.425781 4.382812 -31.015625 3.71875 -31.328125 C 3.0625 -31.648438 2.164062 -31.8125 1.03125 -31.8125 L 1.03125 -34.953125 C 1.507812 -34.953125 2.046875 -35.023438 2.640625 -35.171875 C 3.242188 -35.328125 3.828125 -35.515625 4.390625 -35.734375 C 4.960938 -35.960938 5.492188 -36.195312 5.984375 -36.4375 C 6.484375 -36.675781 6.851562 -36.882812 7.09375 -37.0625 L 10.515625 -37.0625 L 10.515625 -3.734375 C 10.515625 -3.253906 10.609375 -2.851562 10.796875 -2.53125 C 10.992188 -2.21875 11.265625 -1.960938 11.609375 -1.765625 C 11.953125 -1.578125 12.332031 -1.4375 12.75 -1.34375 C 13.175781 -1.257812 13.613281 -1.203125 14.0625 -1.171875 L 14.0625 2.203125 Z M 1.125 2.203125 "/></g></g></g><g fill="#000000" fill-opacity="1"><g transform="translate(386.289397, 110.302357)"><g><path d="M 25.65625 -10.875 C 25.65625 -10.71875 25.601562 -10.523438 25.5 -10.296875 C 25.394531 -10.078125 25.128906 -9.941406 24.703125 -9.890625 L 7.90625 -9.890625 C 7.90625 -7.160156 8.523438 -5.023438 9.765625 -3.484375 C 11.015625 -1.941406 12.957031 -1.171875 15.59375 -1.171875 C 17.113281 -1.171875 18.519531 -1.535156 19.8125 -2.265625 C 21.101562 -3.003906 22.132812 -3.878906 22.90625 -4.890625 L 25.203125 -1.171875 C 24.578125 -0.597656 23.878906 -0.0703125 23.109375 0.40625 C 22.347656 0.882812 21.539062 1.300781 20.6875 1.65625 C 19.832031 2.019531 18.960938 2.296875 18.078125 2.484375 C 17.191406 2.679688 16.316406 2.78125 15.453125 2.78125 C 13.179688 2.78125 11.179688 2.457031 9.453125 1.8125 C 7.734375 1.175781 6.289062 0.265625 5.125 -0.921875 C 3.957031 -2.109375 3.082031 -3.53125 2.5 -5.1875 C 1.914062 -6.851562 1.632812 -8.703125 1.65625 -10.734375 C 1.6875 -12.617188 1.992188 -14.382812 2.578125 -16.03125 C 3.160156 -17.6875 3.988281 -19.117188 5.0625 -20.328125 C 6.144531 -21.535156 7.460938 -22.492188 9.015625 -23.203125 C 10.578125 -23.910156 12.332031 -24.265625 14.28125 -24.265625 C 16.019531 -24.265625 17.59375 -23.984375 19 -23.421875 C 20.40625 -22.867188 21.601562 -22.035156 22.59375 -20.921875 C 23.582031 -19.816406 24.335938 -18.425781 24.859375 -16.75 C 25.390625 -15.070312 25.65625 -13.113281 25.65625 -10.875 Z M 19.5 -14.59375 C 19.5 -15.34375 19.40625 -16.082031 19.21875 -16.8125 C 19.039062 -17.550781 18.75 -18.203125 18.34375 -18.765625 C 17.945312 -19.335938 17.410156 -19.796875 16.734375 -20.140625 C 16.054688 -20.492188 15.238281 -20.671875 14.28125 -20.671875 C 13.207031 -20.671875 12.265625 -20.453125 11.453125 -20.015625 C 10.648438 -19.578125 9.984375 -19.019531 9.453125 -18.34375 C 8.929688 -17.675781 8.539062 -16.921875 8.28125 -16.078125 C 8.03125 -15.242188 7.90625 -14.421875 7.90625 -13.609375 L 18.234375 -13.609375 C 18.628906 -13.609375 18.9375 -13.675781 19.15625 -13.8125 C 19.382812 -13.945312 19.5 -14.207031 19.5 -14.59375 Z M 19.5 -14.59375 "/></g></g></g><g fill="#000000" fill-opacity="1"><g transform="translate(413.593985, 110.302357)"><g><path d="M 25.65625 -10.875 C 25.65625 -10.71875 25.601562 -10.523438 25.5 -10.296875 C 25.394531 -10.078125 25.128906 -9.941406 24.703125 -9.890625 L 7.90625 -9.890625 C 7.90625 -7.160156 8.523438 -5.023438 9.765625 -3.484375 C 11.015625 -1.941406 12.957031 -1.171875 15.59375 -1.171875 C 17.113281 -1.171875 18.519531 -1.535156 19.8125 -2.265625 C 21.101562 -3.003906 22.132812 -3.878906 22.90625 -4.890625 L 25.203125 -1.171875 C 24.578125 -0.597656 23.878906 -0.0703125 23.109375 0.40625 C 22.347656 0.882812 21.539062 1.300781 20.6875 1.65625 C 19.832031 2.019531 18.960938 2.296875 18.078125 2.484375 C 17.191406 2.679688 16.316406 2.78125 15.453125 2.78125 C 13.179688 2.78125 11.179688 2.457031 9.453125 1.8125 C 7.734375 1.175781 6.289062 0.265625 5.125 -0.921875 C 3.957031 -2.109375 3.082031 -3.53125 2.5 -5.1875 C 1.914062 -6.851562 1.632812 -8.703125 1.65625 -10.734375 C 1.6875 -12.617188 1.992188 -14.382812 2.578125 -16.03125 C 3.160156 -17.6875 3.988281 -19.117188 5.0625 -20.328125 C 6.144531 -21.535156 7.460938 -22.492188 9.015625 -23.203125 C 10.578125 -23.910156 12.332031 -24.265625 14.28125 -24.265625 C 16.019531 -24.265625 17.59375 -23.984375 19 -23.421875 C 20.40625 -22.867188 21.601562 -22.035156 22.59375 -20.921875 C 23.582031 -19.816406 24.335938 -18.425781 24.859375 -16.75 C 25.390625 -15.070312 25.65625 -13.113281 25.65625 -10.875 Z M 19.5 -14.59375 C 19.5 -15.34375 19.40625 -16.082031 19.21875 -16.8125 C 19.039062 -17.550781 18.75 -18.203125 18.34375 -18.765625 C 17.945312 -19.335938 17.410156 -19.796875 16.734375 -20.140625 C 16.054688 -20.492188 15.238281 -20.671875 14.28125 -20.671875 C 13.207031 -20.671875 12.265625 -20.453125 11.453125 -20.015625 C 10.648438 -19.578125 9.984375 -19.019531 9.453125 -18.34375 C 8.929688 -17.675781 8.539062 -16.921875 8.28125 -16.078125 C 8.03125 -15.242188 7.90625 -14.421875 7.90625 -13.609375 L 18.234375 -13.609375 C 18.628906 -13.609375 18.9375 -13.675781 19.15625 -13.8125 C 19.382812 -13.945312 19.5 -14.207031 19.5 -14.59375 Z M 19.5 -14.59375 "/></g></g></g><g fill="#000000" fill-opacity="1"><g transform="translate(440.898573, 110.302357)"><g><path d="M 29.0625 -12.265625 C 29.0625 -10.765625 28.835938 -9.328125 28.390625 -7.953125 C 27.941406 -6.578125 27.222656 -5.359375 26.234375 -4.296875 C 25.242188 -3.234375 23.960938 -2.378906 22.390625 -1.734375 C 20.816406 -1.085938 18.910156 -0.765625 16.671875 -0.765625 C 15.742188 -0.765625 14.921875 -0.847656 14.203125 -1.015625 C 13.484375 -1.179688 12.84375 -1.382812 12.28125 -1.625 C 11.726562 -1.863281 11.253906 -2.109375 10.859375 -2.359375 C 10.472656 -2.609375 10.160156 -2.828125 9.921875 -3.015625 L 9.921875 -0.140625 C 9.921875 0.734375 10.257812 1.34375 10.9375 1.6875 C 11.613281 2.03125 12.472656 2.234375 13.515625 2.296875 L 13.515625 5.34375 L 1.125 5.34375 L 1.125 2.296875 C 2.019531 2.296875 2.765625 2.097656 3.359375 1.703125 C 3.960938 1.316406 4.265625 0.675781 4.265625 -0.21875 L 4.265625 -17.515625 C 4.265625 -17.847656 4.175781 -18.109375 4 -18.296875 C 3.820312 -18.492188 3.582031 -18.648438 3.28125 -18.765625 C 2.976562 -18.890625 2.640625 -18.96875 2.265625 -19 C 1.890625 -19.03125 1.507812 -19.046875 1.125 -19.046875 L 1.125 -22.234375 C 1.570312 -22.234375 2.070312 -22.304688 2.625 -22.453125 C 3.175781 -22.609375 3.710938 -22.789062 4.234375 -23 C 4.765625 -23.207031 5.253906 -23.421875 5.703125 -23.640625 C 6.148438 -23.867188 6.492188 -24.0625 6.734375 -24.21875 L 10.0625 -24.21875 L 10.0625 -21.5625 C 11.019531 -22.519531 12.097656 -23.203125 13.296875 -23.609375 C 14.492188 -24.015625 15.929688 -24.21875 17.609375 -24.21875 C 19.585938 -24.21875 21.296875 -23.863281 22.734375 -23.15625 C 24.171875 -22.457031 25.359375 -21.546875 26.296875 -20.421875 C 27.242188 -19.296875 27.941406 -18.015625 28.390625 -16.578125 C 28.835938 -15.140625 29.0625 -13.703125 29.0625 -12.265625 Z M 22.46875 -12.359375 C 22.46875 -14.898438 21.859375 -16.84375 20.640625 -18.1875 C 19.429688 -19.539062 17.820312 -20.21875 15.8125 -20.21875 C 13.71875 -20.21875 12.109375 -19.515625 10.984375 -18.109375 C 9.859375 -16.703125 9.296875 -14.785156 9.296875 -12.359375 C 9.296875 -9.929688 9.878906 -8.003906 11.046875 -6.578125 C 12.210938 -5.160156 13.800781 -4.453125 15.8125 -4.453125 C 17.820312 -4.453125 19.429688 -5.160156 20.640625 -6.578125 C 21.859375 -8.003906 22.46875 -9.929688 22.46875 -12.359375 Z M 22.46875 -12.359375 "/></g></g></g><g fill="#000000" fill-opacity="1"><g transform="translate(471.526394, 110.302357)"><g/></g></g><g fill="#000000" fill-opacity="1"><g transform="translate(493.98081, 110.302357)"><g><path d="M 25.65625 -31.53125 C 25.289062 -31.53125 24.882812 -31.5 24.4375 -31.4375 C 23.988281 -31.382812 23.578125 -31.265625 23.203125 -31.078125 C 22.828125 -30.898438 22.503906 -30.640625 22.234375 -30.296875 C 21.960938 -29.953125 21.828125 -29.5 21.828125 -28.9375 L 21.828125 -9.5625 C 21.828125 -5.519531 20.90625 -2.457031 19.0625 -0.375 C 17.226562 1.695312 14.378906 2.828125 10.515625 3.015625 C 9.585938 3.066406 8.550781 3.019531 7.40625 2.875 C 6.269531 2.726562 5.191406 2.4375 4.171875 2 C 3.160156 1.5625 2.304688 0.945312 1.609375 0.15625 C 0.921875 -0.632812 0.578125 -1.675781 0.578125 -2.96875 C 0.578125 -4.34375 0.957031 -5.425781 1.71875 -6.21875 C 2.488281 -7.007812 3.441406 -7.40625 4.578125 -7.40625 C 5.691406 -7.40625 6.632812 -7.023438 7.40625 -6.265625 C 8.1875 -5.503906 8.578125 -4.40625 8.578125 -2.96875 C 8.578125 -2.550781 8.5 -2.113281 8.34375 -1.65625 C 8.195312 -1.207031 8.035156 -0.878906 7.859375 -0.671875 C 8.304688 -0.554688 8.757812 -0.46875 9.21875 -0.40625 C 9.6875 -0.34375 10.132812 -0.34375 10.5625 -0.40625 C 12.351562 -0.738281 13.613281 -1.664062 14.34375 -3.1875 C 15.082031 -4.71875 15.453125 -6.992188 15.453125 -10.015625 L 15.453125 -29.0625 C 15.453125 -29.84375 15.0625 -30.445312 14.28125 -30.875 C 13.507812 -31.3125 12.460938 -31.53125 11.140625 -31.53125 L 11.140625 -34.859375 L 25.65625 -34.859375 Z M 25.65625 -31.53125 "/></g></g></g><g fill="#000000" fill-opacity="1"><g transform="translate(520.477025, 110.302357)"><g><path d="M 28.078125 -10.734375 C 28.078125 -8.878906 27.773438 -7.132812 27.171875 -5.5 C 26.578125 -3.875 25.71875 -2.445312 24.59375 -1.21875 C 23.46875 0.0078125 22.082031 0.984375 20.4375 1.703125 C 18.789062 2.421875 16.9375 2.78125 14.875 2.78125 C 12.800781 2.78125 10.945312 2.421875 9.3125 1.703125 C 7.6875 0.984375 6.300781 0.0078125 5.15625 -1.21875 C 4.019531 -2.445312 3.148438 -3.875 2.546875 -5.5 C 1.953125 -7.132812 1.65625 -8.878906 1.65625 -10.734375 C 1.65625 -12.585938 1.953125 -14.332031 2.546875 -15.96875 C 3.148438 -17.601562 4.019531 -19.035156 5.15625 -20.265625 C 6.300781 -21.492188 7.6875 -22.457031 9.3125 -23.15625 C 10.945312 -23.863281 12.800781 -24.21875 14.875 -24.21875 C 16.9375 -24.21875 18.789062 -23.863281 20.4375 -23.15625 C 22.082031 -22.457031 23.46875 -21.492188 24.59375 -20.265625 C 25.71875 -19.035156 26.578125 -17.601562 27.171875 -15.96875 C 27.773438 -14.332031 28.078125 -12.585938 28.078125 -10.734375 Z M 21.609375 -10.78125 C 21.640625 -13.800781 21.144531 -16.195312 20.125 -17.96875 C 19.101562 -19.738281 17.425781 -20.625 15.09375 -20.625 C 12.820312 -20.625 11.109375 -19.738281 9.953125 -17.96875 C 8.796875 -16.195312 8.203125 -13.800781 8.171875 -10.78125 C 8.140625 -7.726562 8.648438 -5.320312 9.703125 -3.5625 C 10.753906 -1.8125 12.445312 -0.9375 14.78125 -0.9375 C 17.082031 -0.9375 18.785156 -1.8125 19.890625 -3.5625 C 21.003906 -5.320312 21.578125 -7.726562 21.609375 -10.78125 Z M 21.609375 -10.78125 "/></g></g></g><g fill="#000000" fill-opacity="1"><g transform="translate(550.206689, 110.302357)"><g><path d="M 28.9375 -20.4375 C 28.363281 -20.375 27.910156 -20.304688 27.578125 -20.234375 C 27.253906 -20.160156 26.976562 -20.039062 26.75 -19.875 C 26.53125 -19.707031 26.328125 -19.484375 26.140625 -19.203125 C 25.960938 -18.921875 25.753906 -18.523438 25.515625 -18.015625 C 24.859375 -16.671875 24.144531 -15.234375 23.375 -13.703125 C 22.613281 -12.171875 21.851562 -10.6875 21.09375 -9.25 C 20.332031 -7.8125 19.59375 -6.457031 18.875 -5.1875 C 18.15625 -3.914062 17.492188 -2.847656 16.890625 -1.984375 C 15.992188 -0.628906 15.09375 0.492188 14.1875 1.390625 C 13.289062 2.285156 12.394531 3.019531 11.5 3.59375 C 10.601562 4.164062 9.691406 4.578125 8.765625 4.828125 C 7.835938 5.085938 6.878906 5.242188 5.890625 5.296875 C 4.773438 5.359375 3.847656 5.269531 3.109375 5.03125 C 2.378906 4.789062 1.789062 4.46875 1.34375 4.0625 C 0.894531 3.65625 0.582031 3.210938 0.40625 2.734375 C 0.226562 2.253906 0.140625 1.789062 0.140625 1.34375 C 0.140625 0.300781 0.445312 -0.609375 1.0625 -1.390625 C 1.675781 -2.171875 2.503906 -2.5625 3.546875 -2.5625 C 4.660156 -2.5625 5.460938 -2.207031 5.953125 -1.5 C 6.441406 -0.800781 6.765625 -0.03125 6.921875 0.8125 C 7.222656 0.8125 7.582031 0.757812 8 0.65625 C 8.414062 0.550781 8.882812 0.332031 9.40625 0 C 9.9375 -0.332031 10.492188 -0.804688 11.078125 -1.421875 C 11.660156 -2.035156 12.265625 -2.847656 12.890625 -3.859375 L 5.125 -16.984375 C 4.488281 -18.023438 3.863281 -18.820312 3.25 -19.375 C 2.644531 -19.9375 1.863281 -20.273438 0.90625 -20.390625 L 0.90625 -23.765625 L 13.03125 -23.765625 L 13.03125 -20.390625 C 12.070312 -20.335938 11.421875 -20.144531 11.078125 -19.8125 C 10.734375 -19.476562 10.679688 -19.070312 10.921875 -18.59375 L 16.359375 -8.71875 L 20.890625 -18.109375 C 21.097656 -18.796875 21 -19.351562 20.59375 -19.78125 C 20.1875 -20.21875 19.414062 -20.4375 18.28125 -20.4375 L 18.28125 -23.765625 L 28.9375 -23.765625 Z M 28.9375 -20.4375 "/></g></g></g></svg>